HIERARCHY
ROOT mixamorig:Hips
{
	OFFSET 0.000000 201.639420 0.000000
	CHANNELS 6 Xposition Yposition Zposition Xrotation Yrotation Zrotation
	JOINT mixamorig:Spine
	{
		OFFSET 0.006200 19.524994 -2.481800
		CHANNELS 3 Xrotation Yrotation Zrotation
		JOINT mixamorig:Spine1
		{
			OFFSET -0.000900 22.835007 -2.825400
			CHANNELS 3 Xrotation Yrotation Zrotation
			JOINT mixamorig:Spine2
			{
				OFFSET -0.020600 26.552490 -3.193300
				CHANNELS 3 Xrotation Yrotation Zrotation
				JOINT mixamorig:Neck
				{
					OFFSET -0.060000 30.701813 1.352200
					CHANNELS 3 Xrotation Yrotation Zrotation
					JOINT mixamorig:Head
					{
						OFFSET -0.087200 22.547607 3.670900
						CHANNELS 3 Xrotation Yrotation Zrotation
						JOINT mixamorig:HeadTop_End
						{
							OFFSET -0.830600 40.355194 7.893500
							CHANNELS 3 Xrotation Yrotation Zrotation
							End Site
							{
								OFFSET 0.000000 30.592346 0.000000
							}
						}
						JOINT mixamorig:RightEye
						{
							OFFSET -6.302100 18.118591 16.197100
							CHANNELS 3 Xrotation Yrotation Zrotation
							End Site
							{
								OFFSET 0.000000 30.592346 0.000000
							}
						}
						JOINT mixamorig:LeftEye
						{
							OFFSET 6.741500 18.382690 16.401899
							CHANNELS 3 Xrotation Yrotation Zrotation
							End Site
							{
								OFFSET 0.000000 30.592346 0.000000
							}
						}
					}
				}
				JOINT mixamorig:LeftShoulder
				{
					OFFSET 11.924900 18.230499 1.425400
					CHANNELS 3 Xrotation Yrotation Zrotation
					JOINT mixamorig:LeftArm
					{
						OFFSET 25.435989 -0.697632 -5.229300
						CHANNELS 3 Xrotation Yrotation Zrotation
						JOINT mixamorig:LeftForeArm
						{
							OFFSET 54.684776 0.000000 0.000000
							CHANNELS 3 Xrotation Yrotation Zrotation
							JOINT mixamorig:LeftHand
							{
								OFFSET 55.098175 0.000000 0.000000
								CHANNELS 3 Xrotation Yrotation Zrotation
								JOINT mixamorig:LeftHandMiddle1
								{
									OFFSET 23.369751 0.000000 0.000000
									CHANNELS 3 Xrotation Yrotation Zrotation
									JOINT mixamorig:LeftHandMiddle2
									{
										OFFSET 6.378677 0.000000 0.000000
										CHANNELS 3 Xrotation Yrotation Zrotation
										JOINT mixamorig:LeftHandMiddle3
										{
											OFFSET 6.148331 0.000000 0.000000
											CHANNELS 3 Xrotation Yrotation Zrotation
											JOINT mixamorig:LeftHandMiddle4
											{
												OFFSET 6.582504 0.000000 0.000000
												CHANNELS 3 Xrotation Yrotation Zrotation
												End Site
												{
													OFFSET -1.168900 6.395691 1.028606
												}
											}
										}
									}
								}
								JOINT mixamorig:LeftHandThumb1
								{
									OFFSET 7.235672 -3.848206 5.434273
									CHANNELS 3 Xrotation Yrotation Zrotation
									JOINT mixamorig:LeftHandThumb2
									{
										OFFSET 6.568451 -3.792297 3.792300
										CHANNELS 3 Xrotation Yrotation Zrotation
										JOINT mixamorig:LeftHandThumb3
										{
											OFFSET 6.063080 -3.500519 3.500518
											CHANNELS 3 Xrotation Yrotation Zrotation
											JOINT mixamorig:LeftHandThumb4
											{
												OFFSET 4.793182 -2.767334 2.767349
												CHANNELS 3 Xrotation Yrotation Zrotation
												End Site
												{
													OFFSET 0.101639 6.054260 1.275483
												}
											}
										}
									}
								}
								JOINT mixamorig:LeftHandIndex1
								{
									OFFSET 23.101074 -0.309540 4.992809
									CHANNELS 3 Xrotation Yrotation Zrotation
									JOINT mixamorig:LeftHandIndex2
									{
										OFFSET 6.226883 0.000000 0.000000
										CHANNELS 3 Xrotation Yrotation Zrotation
										JOINT mixamorig:LeftHandIndex3
										{
											OFFSET 6.094330 0.000000 0.000000
											CHANNELS 3 Xrotation Yrotation Zrotation
											JOINT mixamorig:LeftHandIndex4
											{
												OFFSET 5.482605 0.000000 0.000000
												CHANNELS 3 Xrotation Yrotation Zrotation
												End Site
												{
													OFFSET -1.427902 5.233032 0.797164
												}
											}
										}
									}
								}
								JOINT mixamorig:LeftHandRing1
								{
									OFFSET 22.299240 0.021149 -3.964172
									CHANNELS 3 Xrotation Yrotation Zrotation
									JOINT mixamorig:LeftHandRing2
									{
										OFFSET 6.321869 0.000000 0.000000
										CHANNELS 3 Xrotation Yrotation Zrotation
										JOINT mixamorig:LeftHandRing3
										{
											OFFSET 5.899796 0.000000 0.000000
											CHANNELS 3 Xrotation Yrotation Zrotation
											JOINT mixamorig:LeftHandRing4
											{
												OFFSET 6.517899 0.000000 0.000000
												CHANNELS 3 Xrotation Yrotation Zrotation
												End Site
												{
													OFFSET -1.637299 6.232208 0.980890
												}
											}
										}
									}
								}
								JOINT mixamorig:LeftHandPinky1
								{
									OFFSET 20.463791 -0.302338 -8.562233
									CHANNELS 3 Xrotation Yrotation Zrotation
									JOINT mixamorig:LeftHandPinky2
									{
										OFFSET 6.908646 0.000000 0.000000
										CHANNELS 3 Xrotation Yrotation Zrotation
										JOINT mixamorig:LeftHandPinky3
										{
											OFFSET 4.622849 0.000000 0.000000
											CHANNELS 3 Xrotation Yrotation Zrotation
											JOINT mixamorig:LeftHandPinky4
											{
												OFFSET 5.216080 0.000000 0.000000
												CHANNELS 3 Xrotation Yrotation Zrotation
												End Site
												{
													OFFSET -0.606308 5.116241 0.814926
												}
											}
										}
									}
								}
							}
						}
					}
				}
				JOINT mixamorig:RightShoulder
				{
					OFFSET -12.001300 18.284088 1.348900
					CHANNELS 3 Xrotation Yrotation Zrotation
					JOINT mixamorig:RightArm
					{
						OFFSET -25.308500 -0.751312 -5.164599
						CHANNELS 3 Xrotation Yrotation Zrotation
						JOINT mixamorig:RightForeArm
						{
							OFFSET -54.684429 0.000000 0.000000
							CHANNELS 3 Xrotation Yrotation Zrotation
							JOINT mixamorig:RightHand
							{
								OFFSET -55.150291 0.000000 0.000000
								CHANNELS 3 Xrotation Yrotation Zrotation
								JOINT mixamorig:RightHandMiddle1
								{
									OFFSET -23.317566 0.000000 0.000000
									CHANNELS 3 Xrotation Yrotation Zrotation
									JOINT mixamorig:RightHandMiddle2
									{
										OFFSET -6.378403 0.000000 0.000000
										CHANNELS 3 Xrotation Yrotation Zrotation
										JOINT mixamorig:RightHandMiddle3
										{
											OFFSET -6.148193 0.000000 0.000000
											CHANNELS 3 Xrotation Yrotation Zrotation
											JOINT mixamorig:RightHandMiddle4
											{
												OFFSET -6.583389 0.000000 0.000000
												CHANNELS 3 Xrotation Yrotation Zrotation
												End Site
												{
													OFFSET 1.171692 6.395905 1.029786
												}
											}
										}
									}
								}
								JOINT mixamorig:RightHandThumb1
								{
									OFFSET -7.190521 -3.860474 5.435846
									CHANNELS 3 Xrotation Yrotation Zrotation
									JOINT mixamorig:RightHandThumb2
									{
										OFFSET -6.567429 -3.791718 3.791708
										CHANNELS 3 Xrotation Yrotation Zrotation
										JOINT mixamorig:RightHandThumb3
										{
											OFFSET -6.062469 -3.500153 3.500166
											CHANNELS 3 Xrotation Yrotation Zrotation
											JOINT mixamorig:RightHandThumb4
											{
												OFFSET -4.792618 -2.767029 2.767022
												CHANNELS 3 Xrotation Yrotation Zrotation
												End Site
												{
													OFFSET -0.100327 6.053253 1.276754
												}
											}
										}
									}
								}
								JOINT mixamorig:RightHandIndex1
								{
									OFFSET -23.048981 -0.310791 4.992554
									CHANNELS 3 Xrotation Yrotation Zrotation
									JOINT mixamorig:RightHandIndex2
									{
										OFFSET -6.227539 0.000000 0.000000
										CHANNELS 3 Xrotation Yrotation Zrotation
										JOINT mixamorig:RightHandIndex3
										{
											OFFSET -6.095047 0.000000 0.000000
											CHANNELS 3 Xrotation Yrotation Zrotation
											JOINT mixamorig:RightHandIndex4
											{
												OFFSET -5.484772 0.000000 0.000000
												CHANNELS 3 Xrotation Yrotation Zrotation
												End Site
												{
													OFFSET 1.420593 5.237305 0.797056
												}
											}
										}
									}
								}
								JOINT mixamorig:RightHandRing1
								{
									OFFSET -22.246323 0.020569 -3.963762
									CHANNELS 3 Xrotation Yrotation Zrotation
									JOINT mixamorig:RightHandRing2
									{
										OFFSET -6.322128 0.000000 0.000000
										CHANNELS 3 Xrotation Yrotation Zrotation
										JOINT mixamorig:RightHandRing3
										{
											OFFSET -5.900024 0.000000 0.000000
											CHANNELS 3 Xrotation Yrotation Zrotation
											JOINT mixamorig:RightHandRing4
											{
												OFFSET -6.518356 0.000000 0.000000
												CHANNELS 3 Xrotation Yrotation Zrotation
												End Site
												{
													OFFSET 1.636398 6.232697 0.982186
												}
											}
										}
									}
								}
								JOINT mixamorig:RightHandPinky1
								{
									OFFSET -20.411011 -0.303314 -8.561701
									CHANNELS 3 Xrotation Yrotation Zrotation
									JOINT mixamorig:RightHandPinky2
									{
										OFFSET -6.907349 0.000000 0.000000
										CHANNELS 3 Xrotation Yrotation Zrotation
										JOINT mixamorig:RightHandPinky3
										{
											OFFSET -4.623840 0.000000 0.000000
											CHANNELS 3 Xrotation Yrotation Zrotation
											JOINT mixamorig:RightHandPinky4
											{
												OFFSET -5.218353 0.000000 0.000000
												CHANNELS 3 Xrotation Yrotation Zrotation
												End Site
												{
													OFFSET 0.602097 5.118835 0.816273
												}
											}
										}
									}
								}
							}
						}
					}
				}
			}
		}
	}
	JOINT mixamorig:LeftUpLeg
	{
		OFFSET 18.168400 -13.561905 -0.039000
		CHANNELS 3 Xrotation Yrotation Zrotation
		JOINT mixamorig:LeftLeg
		{
			OFFSET 0.577358 -80.825211 -3.695000
			CHANNELS 3 Xrotation Yrotation Zrotation
			JOINT mixamorig:LeftFoot
			{
				OFFSET -0.577356 -83.370262 -6.520700
				CHANNELS 3 Xrotation Yrotation Zrotation
				JOINT mixamorig:LeftToeBase
				{
					OFFSET 0.750401 -20.798306 25.135401
					CHANNELS 3 Xrotation Yrotation Zrotation
					JOINT mixamorig:LeftToe_End
					{
						OFFSET -0.000500 0.001200 19.917799
						CHANNELS 3 Xrotation Yrotation Zrotation
						End Site
						{
							OFFSET 0.000000 19.917805 0.000000
						}
					}
				}
			}
		}
	}
	JOINT mixamorig:RightUpLeg
	{
		OFFSET -18.162500 -13.585098 -0.041000
		CHANNELS 3 Xrotation Yrotation Zrotation
		JOINT mixamorig:RightLeg
		{
			OFFSET -0.595024 -80.945297 -3.631900
			CHANNELS 3 Xrotation Yrotation Zrotation
			JOINT mixamorig:RightFoot
			{
				OFFSET 0.595024 -83.218193 -6.561200
				CHANNELS 3 Xrotation Yrotation Zrotation
				JOINT mixamorig:RightToeBase
				{
					OFFSET -0.753601 -20.807106 25.115000
					CHANNELS 3 Xrotation Yrotation Zrotation
					JOINT mixamorig:RightToe_End
					{
						OFFSET 0.000299 0.001700 19.918200
						CHANNELS 3 Xrotation Yrotation Zrotation
						End Site
						{
							OFFSET 0.000000 19.918203 0.000000
						}
					}
				}
			}
		}
	}
}
MOTION
Frames: 4
Frame Time: 0.033333
-0.126904 200.048004 -0.197585 -0.717348 -5.724011 -2.889047 1.179721 0.732123 0.829808 2.348892 1.503627 1.641641 2.348893 1.503627 1.641640 -10.175051 0.995687 1.395481 4.559459 1.296876 -2.896507 0.000000 -0.000000 0.000000 0.000000 -0.000000 0.000000 0.000000 -0.000000 0.000000 -2.344700 0.230067 -11.201123 17.652585 -22.552853 -63.812818 0.735404 -26.843011 0.332032 -31.220709 -4.059843 10.554653 -0.805123 6.906505 -10.593382 -0.015434 -0.292057 -10.347169 -0.000001 0.000002 -0.000004 -0.000002 0.000000 -0.000000 15.093707 9.090683 8.177569 7.278501 9.572824 -0.684868 -0.000009 0.000005 0.000036 -0.000001 -0.000000 -0.000002 -6.489611 12.415235 -8.172494 0.451421 0.705934 -16.464861 -0.000002 -0.000001 -0.000007 -0.000000 0.000000 -0.000001 1.932585 6.552091 -19.233150 -0.098547 0.115991 -10.400589 -0.000000 0.000002 0.000003 -0.000003 -0.000000 -0.000000 6.654884 6.908974 -28.694772 -0.494853 -2.794971 -16.375350 -0.000001 -0.000000 0.000002 0.000001 0.000001 -0.000000 -1.546276 -0.099392 7.361782 5.800161 -4.268393 74.295164 -29.781937 20.633320 14.752922 37.876309 0.364711 -3.959011 -1.877510 -3.014900 18.520732 -0.267680 1.497367 17.151128 -0.000003 -0.000003 -0.000006 0.000002 0.000000 0.000001 -12.281536 -10.889313 -9.550337 2.008794 -3.890699 -2.570139 0.000001 0.000001 -0.000012 0.000000 -0.000001 0.000001 -8.787061 -6.758628 5.326524 0.264229 -1.422498 23.907525 -0.000002 -0.000002 0.000011 -0.000000 -0.000000 -0.000001 -0.582811 -4.019932 20.369709 -0.358506 0.446843 9.351837 0.000003 -0.000002 -0.000008 0.000000 -0.000001 -0.000001 1.513190 -3.501505 22.411932 -1.288476 4.063866 12.536168 -0.000002 -0.000001 -0.000002 0.000000 0.000000 -0.000001 -17.117057 1.348925 8.781481 17.111524 -0.012515 -0.550944 3.367525 18.103111 -3.757971 -0.074548 3.222514 -1.484698 0.000000 0.000002 -0.000000 -1.446612 -6.938540 6.278064 6.229912 0.044846 0.264493 -4.095315 -12.512068 -3.985380 -2.755868 0.969578 -0.586099 -0.000000 -0.000001 -0.000000 
-0.103603 200.046555 -0.223707 -0.740228 -5.699255 -2.906494 1.197734 0.732036 0.835232 2.384884 1.503922 1.650580 2.384882 1.503924 1.650580 -10.185363 0.999853 1.398443 4.561671 1.321803 -2.907589 0.000000 -0.000000 0.000000 0.000000 -0.000000 0.000000 0.000000 -0.000000 0.000000 -2.344486 0.243489 -11.190267 17.734612 -22.424336 -63.900388 0.758160 -27.195464 0.346459 -31.186073 -4.227807 10.562069 -0.809613 6.883729 -10.577717 -0.015785 -0.294932 -10.401680 -0.000001 0.000002 -0.000004 -0.000002 -0.000000 -0.000000 15.148595 9.160435 8.136625 7.292998 9.672417 -0.665256 -0.000012 0.000005 0.000031 0.000001 0.000000 -0.000001 -6.465503 12.470774 -8.275709 0.452737 0.711264 -16.439482 -0.000003 0.000001 -0.000004 -0.000000 -0.000001 -0.000001 1.939661 6.574119 -19.186439 -0.099220 0.112748 -10.434372 0.000002 0.000002 0.000001 0.000001 -0.000000 -0.000002 6.639182 6.875966 -28.663247 -0.496040 -2.798142 -16.393663 -0.000005 0.000001 -0.000001 0.000001 0.000001 0.000002 -1.548038 -0.096933 7.369701 5.758512 -4.134436 74.231705 -29.515177 20.597673 14.575735 37.737331 0.497452 -3.913210 -1.861618 -3.027834 18.472130 -0.265416 1.488108 17.094628 -0.000001 -0.000004 -0.000003 0.000001 0.000001 -0.000000 -12.261473 -10.924565 -9.448982 2.038647 -3.966257 -2.584000 0.000002 0.000001 -0.000008 -0.000002 -0.000000 0.000002 -8.772853 -6.740869 5.422643 0.257357 -1.417218 23.764383 -0.000002 -0.000001 0.000013 0.000001 -0.000000 0.000002 -0.588690 -4.013828 20.474100 -0.360637 0.451775 9.435476 0.000001 -0.000001 -0.000009 -0.000000 -0.000000 0.000001 1.537479 -3.554692 22.448115 -1.284249 4.057690 12.468296 0.000001 -0.000002 -0.000005 0.000001 -0.000000 0.000001 -17.106250 1.266569 8.772075 17.132174 -0.023105 -0.553189 3.368079 18.169241 -3.758757 -0.074909 3.222515 -1.484708 -0.000000 0.000000 -0.000000 -1.402372 -7.147882 6.262917 6.225169 0.034796 0.266226 -4.089673 -12.265366 -3.939348 -2.751913 0.969500 -0.586151 0.000000 0.000000 0.000000 
-0.075605 200.026306 -0.222167 -0.832134 -5.652703 -2.938944 1.251464 0.733540 0.843303 2.492269 1.508224 1.663526 2.492269 1.508226 1.663525 -10.196689 0.996652 1.401805 4.627783 1.306960 -2.922361 0.000000 0.000000 0.000000 0.000000 0.000000 0.000000 0.000000 0.000000 0.000000 -2.344925 0.252077 -11.183058 17.956494 -22.148343 -63.929935 0.809882 -27.996148 0.380118 -31.055111 -4.318887 10.741621 -0.808880 6.887533 -10.571253 -0.016133 -0.297848 -10.457307 -0.000001 0.000002 -0.000004 -0.000001 -0.000001 0.000001 15.175302 9.192978 8.125960 7.276075 9.703577 -0.621507 -0.000012 0.000005 0.000031 0.000001 0.000000 -0.000002 -6.458184 12.472293 -8.364975 0.454048 0.716538 -16.411387 -0.000002 0.000001 -0.000006 -0.000000 -0.000001 -0.000002 1.939615 6.572991 -19.177397 -0.099794 0.109849 -10.464614 0.000001 0.000001 0.000001 -0.000000 -0.000001 0.000001 6.640973 6.869781 -28.678424 -0.496371 -2.799033 -16.398852 -0.000006 0.000001 0.000001 0.000001 0.000000 0.000001 -1.550185 -0.089115 7.373234 5.575366 -3.945428 74.147461 -29.219846 20.410152 14.306805 37.583321 0.737011 -3.923499 -1.842482 -3.065688 18.463929 -0.263899 1.480264 17.062593 -0.000001 -0.000002 -0.000006 0.000002 0.000000 -0.000000 -12.235261 -10.980573 -9.329330 2.116140 -4.128822 -2.594567 0.000001 0.000002 -0.000011 0.000001 -0.000000 -0.000001 -8.759021 -6.736100 5.589313 0.249136 -1.409368 23.564527 -0.000003 -0.000001 0.000012 0.000001 0.000001 -0.000000 -0.591832 -4.009895 20.521621 -0.363480 0.458334 9.546950 0.000002 -0.000002 -0.000006 -0.000001 0.000000 -0.000003 1.544496 -3.566850 22.500356 -1.293070 4.070553 12.609811 -0.000002 -0.000002 0.000000 -0.000001 0.000002 0.000000 -17.069276 1.179936 8.772688 17.257730 -0.034414 -0.559577 3.302968 18.212720 -3.753725 -0.075486 3.222530 -1.484679 -0.000000 0.000002 -0.000000 -1.408892 -7.345206 6.238379 6.504659 0.027501 0.272609 -4.319020 -12.062619 -3.887008 -2.758220 0.969609 -0.586071 -0.000000 -0.000002 -0.000000 
-0.035632 199.982605 -0.201687 -0.966725 -5.583505 -2.983070 1.339078 0.736950 0.854277 2.667373 1.517185 1.681083 2.667369 1.517185 1.681082 -10.219718 0.987684 1.401326 4.777550 1.254948 -2.946892 -0.000000 0.000000 -0.000000 -0.000000 0.000000 -0.000000 -0.000000 0.000000 -0.000000 -2.345444 0.257766 -11.176875 18.260992 -21.737436 -63.875642 0.882091 -29.098136 0.428921 -30.870539 -4.387926 10.963540 -0.804932 6.907510 -10.585227 -0.016460 -0.300203 -10.501846 -0.000002 0.000001 -0.000004 -0.000000 -0.000000 0.000000 15.155071 9.161898 8.147815 7.227703 9.666488 -0.553662 -0.000009 0.000005 0.000031 0.000002 0.000001 -0.000000 -6.461446 12.442406 -8.438951 0.455565 0.722627 -16.393432 -0.000001 0.000002 -0.000005 -0.000000 -0.000000 -0.000001 1.937510 6.563891 -19.197804 -0.100597 0.106022 -10.504649 0.000001 0.000001 0.000002 -0.000001 0.000001 -0.000001 6.651532 6.864944 -28.777537 -0.496392 -2.799055 -16.399009 -0.000005 0.000000 -0.000002 -0.000001 0.000001 0.000000 -1.552466 -0.079796 7.372826 5.243562 -3.706816 74.042830 -28.898213 20.063433 13.946186 37.415056 1.083774 -3.997364 -1.832849 -3.084302 18.530827 -0.263356 1.474386 17.063850 -0.000001 -0.000000 -0.000006 0.000001 0.000001 0.000002 -12.195231 -11.056591 -9.223505 2.217976 -4.335343 -2.602778 0.000002 0.000001 -0.000006 -0.000002 -0.000000 0.000000 -8.732908 -6.808742 5.870120 0.242976 -1.405222 23.447636 -0.000004 -0.000003 0.000009 -0.000000 0.000000 -0.000000 -0.599031 -4.005436 20.683201 -0.366867 0.466126 9.679352 0.000005 -0.000000 -0.000004 0.000000 -0.000000 0.000000 1.533080 -3.535759 22.587133 -1.297833 4.077481 12.685854 -0.000001 0.000001 -0.000002 0.000002 0.000001 -0.000000 -17.045302 1.092318 8.781432 17.500985 -0.046640 -0.570557 3.170256 18.227418 -3.738785 -0.076176 3.222546 -1.484681 -0.000000 0.000002 -0.000000 -1.411271 -7.500226 6.221921 6.869674 0.016311 0.283235 -4.601204 -11.930205 -3.885637 -2.772883 0.969826 -0.585889 0.000000 0.000001 0.000000 
